<?xml version="1.0" encoding="UTF-8"?>
<!DOCTYPE svg PUBLIC "-//W3C//DTD SVG 1.1//EN" "http://www.w3.org/Graphics/SVG/1.1/DTD/svg11.dtd">
<!-- Creator: CorelDRAW 2019 (64-Bit) -->
<svg xmlns="http://www.w3.org/2000/svg" xml:space="preserve" width="8.733mm" height="11.862mm" version="1.1" style="shape-rendering:geometricPrecision; text-rendering:geometricPrecision; image-rendering:optimizeQuality; fill-rule:evenodd; clip-rule:evenodd"
viewBox="0 0 27.79 37.75"
 xmlns:xlink="http://www.w3.org/1999/xlink">
 <defs>
  <style type="text/css">
   <![CDATA[
    .fil0 {fill:#274375}
   ]]>
  </style>
 </defs>
 <g id="Слой_x0020_1">
  <metadata id="CorelCorpID_0Corel-Layer"/>
  <path class="fil0" d="M-0 13.89c0,1.81 0.62,3.99 1.52,6.18 1.29,3.17 3.14,6.36 4.46,8.47 0.73,1.18 1.5,2.32 2.26,3.4 0.75,1.07 1.5,2.05 2.2,2.91 1.12,1.36 1.87,2.1 2.41,2.49 0.5,0.36 0.81,0.42 1.06,0.42 0.25,0 0.55,-0.05 1.04,-0.42 0.53,-0.39 1.27,-1.13 2.38,-2.49 0.7,-0.86 1.44,-1.85 2.2,-2.92 0.76,-1.07 1.52,-2.21 2.26,-3.38 1.33,-2.12 3.19,-5.31 4.49,-8.48 0.9,-2.19 1.53,-4.37 1.53,-6.17 0,-3.83 -1.56,-7.3 -4.08,-9.82 -2.52,-2.52 -5.99,-4.08 -9.82,-4.08 -3.83,0 -7.3,1.56 -9.82,4.08 -2.52,2.52 -4.08,5.99 -4.08,9.82l-0.01 0zm13.89 -6.31c1.74,0 3.32,0.71 4.46,1.85 1.14,1.14 1.85,2.72 1.85,4.46 0,1.74 -0.71,3.32 -1.85,4.46 -1.14,1.14 -2.72,1.85 -4.46,1.85 -1.74,0 -3.32,-0.71 -4.46,-1.85 -1.14,-1.14 -1.85,-2.72 -1.85,-4.46 0,-1.74 0.71,-3.32 1.85,-4.46 1.14,-1.14 2.72,-1.85 4.46,-1.85z"/>
 </g>
</svg>
