<?xml version="1.0" encoding="UTF-8"?>
<!DOCTYPE svg PUBLIC "-//W3C//DTD SVG 1.1//EN" "http://www.w3.org/Graphics/SVG/1.1/DTD/svg11.dtd">
<!-- Creator: CorelDRAW 2019 (64-Bit) -->
<svg xmlns="http://www.w3.org/2000/svg" xml:space="preserve" width="8.4623mm" height="8.6096mm" version="1.1" style="shape-rendering:geometricPrecision; text-rendering:geometricPrecision; image-rendering:optimizeQuality; fill-rule:evenodd; clip-rule:evenodd"
viewBox="0 0 3826.98 3893.6"
 xmlns:xlink="http://www.w3.org/1999/xlink">
 <defs>
  <style type="text/css">
   <![CDATA[
    .fil0 {fill:white;fill-rule:nonzero}
   ]]>
  </style>
 </defs>
 <g id="Слой_x0020_1">
  <metadata id="CorelCorpID_0Corel-Layer"/>
  <path class="fil0" d="M2231.53 0l905.93 0c189.85,0 362.33,77.56 487.15,202.38 124.82,124.82 202.38,297.3 202.38,487.15l0 2514.54c0,189.85 -77.56,362.33 -202.38,487.15 -124.82,124.82 -297.3,202.38 -487.15,202.38l-905.93 0 0 -478.65 905.93 0c57.8,0 110.53,-23.83 148.79,-62.09 38.26,-38.26 62.09,-90.99 62.09,-148.79l0 -2514.54c0,-57.8 -23.83,-110.53 -62.09,-148.79 -38.26,-38.26 -90.99,-62.09 -148.79,-62.09l-905.93 0 0 -478.65zm-785 733.62l1043.95 1043.99c93.39,93.48 93.39,244.93 -0.05,338.37l-1043.9 1043.99 -338.37 -338.37 635.44 -635.49 -1743.61 0 0 -478.65 1743.61 0 -635.44 -635.49 338.37 -338.37z"/>
 </g>
</svg>
