<?xml version="1.0" encoding="UTF-8"?>
<!DOCTYPE svg PUBLIC "-//W3C//DTD SVG 1.1//EN" "http://www.w3.org/Graphics/SVG/1.1/DTD/svg11.dtd">
<!-- Creator: CorelDRAW 2019 (64-Bit) -->
<svg xmlns="http://www.w3.org/2000/svg" xml:space="preserve" width="10.8771mm" height="9.5844mm" version="1.1" style="shape-rendering:geometricPrecision; text-rendering:geometricPrecision; image-rendering:optimizeQuality; fill-rule:evenodd; clip-rule:evenodd"
viewBox="0 0 34.17 30.11"
 xmlns:xlink="http://www.w3.org/1999/xlink">
 <defs>
  <style type="text/css">
   <![CDATA[
    .fil0 {fill:white}
   ]]>
  </style>
 </defs>
 <g id="Слой_x0020_1">
  <metadata id="CorelCorpID_0Corel-Layer"/>
  <path class="fil0" d="M11.12 20.28l-0.04 0c-0.17,0.01 -0.32,0.08 -0.43,0.2 -0.12,0.12 -0.2,0.29 -0.2,0.47 0,0.18 0.07,0.35 0.2,0.47 0.12,0.12 0.29,0.2 0.47,0.2l17.82 0c0.36,0 0.68,0.15 0.92,0.38 0.24,0.23 0.38,0.56 0.38,0.92 0,0.36 -0.15,0.68 -0.38,0.92 -0.24,0.23 -0.56,0.38 -0.92,0.38l-0.04 0c0.14,0.1 0.26,0.21 0.38,0.33 0.59,0.59 0.96,1.41 0.96,2.31 0,0.9 -0.37,1.72 -0.96,2.31 -0.59,0.59 -1.41,0.96 -2.31,0.96 -0.9,0 -1.71,-0.37 -2.3,-0.96 -0.59,-0.59 -0.96,-1.41 -0.96,-2.31 0,-0.9 0.37,-1.71 0.96,-2.3 0.12,-0.12 0.25,-0.23 0.38,-0.33l-10.05 0c0.14,0.1 0.27,0.21 0.39,0.33 0.59,0.59 0.96,1.41 0.96,2.3 0,0.9 -0.37,1.72 -0.96,2.31 -0.59,0.59 -1.41,0.96 -2.31,0.96 -0.9,0 -1.72,-0.37 -2.31,-0.96 -0.59,-0.59 -0.96,-1.41 -0.96,-2.31 0,-0.9 0.37,-1.71 0.96,-2.3 0.12,-0.12 0.25,-0.23 0.38,-0.33l-0.04 0c-0.9,0 -1.71,-0.37 -2.31,-0.96 -0.59,-0.59 -0.96,-1.41 -0.96,-2.31 0,-0.66 0.2,-1.27 0.54,-1.79 0.3,-0.46 0.71,-0.84 1.2,-1.09l-3.44 -15.48 -4.86 0c-0.36,0 -0.68,-0.15 -0.92,-0.38 -0.24,-0.24 -0.38,-0.56 -0.38,-0.92 0,-0.36 0.15,-0.68 0.38,-0.92 0.24,-0.23 0.56,-0.38 0.92,-0.38l5.9 0c0.3,0 0.59,0.11 0.81,0.29 0.22,0.18 0.39,0.43 0.45,0.73l0.65 2.91 23.77 0c0.2,0 0.4,0.05 0.58,0.14 0.18,0.09 0.33,0.22 0.46,0.38 0.12,0.16 0.2,0.35 0.24,0.54 0.04,0.19 0.03,0.4 -0.03,0.59l-3.93 13.76c-0.08,0.28 -0.25,0.51 -0.47,0.68 -0.22,0.17 -0.49,0.26 -0.78,0.26l-17.82 0zm16.33 6.09c-0.12,-0.12 -0.29,-0.2 -0.47,-0.2 -0.18,0 -0.35,0.07 -0.47,0.2 -0.12,0.12 -0.2,0.29 -0.2,0.47 0,0.18 0.07,0.35 0.2,0.47 0.12,0.12 0.29,0.2 0.47,0.2 0.18,0 0.35,-0.07 0.47,-0.2 0.12,-0.12 0.2,-0.29 0.2,-0.47 0,-0.18 -0.07,-0.35 -0.2,-0.47zm-13.89 0c-0.12,-0.12 -0.29,-0.2 -0.47,-0.2 -0.18,0 -0.35,0.08 -0.47,0.2 -0.12,0.12 -0.2,0.29 -0.2,0.47 0,0.18 0.08,0.35 0.2,0.47 0.12,0.12 0.29,0.2 0.47,0.2 0.18,0 0.35,-0.07 0.47,-0.2 0.12,-0.12 0.2,-0.29 0.2,-0.47 0,-0.18 -0.07,-0.35 -0.2,-0.47zm14.4 -8.69l3.19 -11.17 -21.48 0 2.48 11.17 15.8 0z"/>
 </g>
</svg>
