<?xml version="1.0" encoding="UTF-8"?>
<!DOCTYPE svg PUBLIC "-//W3C//DTD SVG 1.1//EN" "http://www.w3.org/Graphics/SVG/1.1/DTD/svg11.dtd">
<!-- Creator: CorelDRAW 2019 (64-Bit) -->
<svg xmlns="http://www.w3.org/2000/svg" xml:space="preserve" width="29.2804mm" height="29.2804mm" version="1.1" style="shape-rendering:geometricPrecision; text-rendering:geometricPrecision; image-rendering:optimizeQuality; fill-rule:evenodd; clip-rule:evenodd"
viewBox="0 0 273.57 273.57"
 xmlns:xlink="http://www.w3.org/1999/xlink">
 <defs>
  <style type="text/css">
   <![CDATA[
    .fil0 {fill:none}
    .fil1 {fill:white;fill-rule:nonzero}
   ]]>
  </style>
 </defs>
 <g id="Слой_x0020_1">
  <metadata id="CorelCorpID_0Corel-Layer"/>
  <g id="_1634534437808">
   <polygon class="fil0" points="-0,273.57 273.57,273.57 273.57,0 -0,0 "/>
   <path class="fil1" d="M37.84 208.4l198.08 0 0 -5.15 -82.26 -60.4 -11.99 8.66c-3,2.16 -6.96,2 -9.75,-0.11l-11.02 -7.97 -83.06 59.82 0 5.15zm129.83 -75.67l68.25 50.11 0 -99.44 -68.25 49.32zm65.43 -67.55l-192.44 0 96.22 69.54 96.22 -69.54zm-195.26 18.23l0 99.61 69.03 -49.72 -69.03 -49.89zm-16.49 -16.09l-0 0 0 -10.38 0 0 0 -0.21 0 0 0.01 -0.21 0 0 0.01 -0.21 0 0 0.02 -0.21 0 0 0.02 -0.21 0 0 0.03 -0.2 0 0 0.03 -0.2 0 0 0.04 -0.2 0 0 0.04 -0.2 0 0 0.05 -0.2 0 0 0.05 -0.2 0 0 0.06 -0.19 0 0 0.06 -0.19 0 0 0.07 -0.19 0 0 0.07 -0.19 0 0 0.07 -0.19 0 0 0.08 -0.18 0 0 0.08 -0.18 0 0 0.09 -0.18 0 0 0.09 -0.18 0 0 0.1 -0.17 0 0 0.1 -0.17 0 0 0.1 -0.17 0 0 0.11 -0.17 0 0 0.11 -0.16 0 0 0.12 -0.16 0 0 0.12 -0.16 0 0 0.12 -0.15 0 0 0.13 -0.15 0 0 0.13 -0.15 0 0 0.13 -0.14 0 0 0.14 -0.14 0 0 0.14 -0.14 0 0 0.14 -0.14 0 0 0.15 -0.13 0 0 0.15 -0.13 0 0 0.15 -0.12 0 0 0.16 -0.12 0 0 0.16 -0.12 0 0 0.16 -0.11 0 0 0.17 -0.11 0 0 0.17 -0.1 0 0 0.17 -0.1 0 0 0.17 -0.1 0 0 0.18 -0.09 0 0 0.18 -0.09 0 0 0.18 -0.08 0 0 0.18 -0.08 0 0 0.18 -0.08 0 0 0.19 -0.07 0 0 0.19 -0.07 0 0 0.19 -0.06 0 0 0.19 -0.06 0 0 0.2 -0.05 0 0 0.2 -0.05 0 0 0.2 -0.04 0 0 0.2 -0.04 0 0 0.2 -0.03 0 0 0.2 -0.03 0 0 0.21 -0.02 0 0 0.21 -0.02 0 0 0.21 -0.01 0 0 0.21 -0.01 0 0 0.21 -0 0 0 214.57 0c4.55,0 8.24,3.69 8.24,8.24l0 10.38 0 149.33c0,4.55 -3.69,8.24 -8.24,8.24l-214.57 0c-4.55,0 -8.24,-3.69 -8.24,-8.24l0 -15.67c-0.25,-1.16 -0.25,-2.35 0,-3.49l0 -130.17z"/>
  </g>
 </g>
</svg>
