<?xml version="1.0" encoding="UTF-8"?>
<!DOCTYPE svg PUBLIC "-//W3C//DTD SVG 1.1//EN" "http://www.w3.org/Graphics/SVG/1.1/DTD/svg11.dtd">
<!-- Creator: CorelDRAW 2019 (64-Bit) -->
<svg xmlns="http://www.w3.org/2000/svg" xml:space="preserve" width="29.2804mm" height="29.2804mm" version="1.1" style="shape-rendering:geometricPrecision; text-rendering:geometricPrecision; image-rendering:optimizeQuality; fill-rule:evenodd; clip-rule:evenodd"
viewBox="0 0 225.7 225.7"
 xmlns:xlink="http://www.w3.org/1999/xlink">
 <defs>
  <style type="text/css">
   <![CDATA[
    .fil0 {fill:none}
    .fil1 {fill:white;fill-rule:nonzero}
   ]]>
  </style>
 </defs>
 <g id="Слой_x0020_1">
  <metadata id="CorelCorpID_0Corel-Layer"/>
  <g id="_1634534442704">
   <polygon class="fil0" points="-0,225.7 225.7,225.7 225.7,0 -0,0 "/>
   <path class="fil1" d="M162.39 124.11c3.24,1.74 6.2,3.27 9.1,4.76 5.73,2.96 11.28,5.82 16.93,9.2 1.39,0.84 2.62,1.81 3.68,2.9 1.07,1.1 1.98,2.35 2.72,3.71 1.22,2.19 1.94,4.53 2.2,6.98 0.25,2.35 0.08,4.8 -0.47,7.29l0.02 0c-0.41,1.89 -1.03,3.79 -1.81,5.66 -0.78,1.86 -1.75,3.74 -2.86,5.58 -2.11,3.51 -4.83,6.96 -7.74,9.95 -2.69,2.76 -5.6,5.15 -8.42,6.86l-0.1 0.1 -0.93 0.51c-2.67,1.45 -5.39,2.62 -8.16,3.53 -2.86,0.93 -5.79,1.61 -8.78,2.03l-0.03 0c-10.46,1.46 -21.61,-0.12 -32.81,-3.98 -11.79,-4.06 -23.75,-10.69 -35.03,-18.92 -10.54,-7.7 -20.51,-16.76 -29.16,-26.37 -8.74,-9.7 -16.25,-20.07 -21.81,-30.26 -2.65,-4.85 -4.87,-9.7 -6.59,-14.47 -1.72,-4.77 -2.92,-9.42 -3.55,-13.87l-0.08 -0.57 0 -0.19c-0.63,-5.98 0.87,-13.05 3.73,-19.94 3,-7.26 7.55,-14.53 12.65,-20.13l0.01 0.01c1.8,-1.98 3.67,-3.79 5.57,-5.34 1.96,-1.6 3.97,-2.97 6,-4.07l0.03 -0.03c2.57,-1.36 5.24,-2.32 7.99,-2.77 2.78,-0.46 5.55,-0.39 8.27,0.3l0 0.03c3.27,0.84 6.26,2.47 8.87,5.03 2.24,2.19 4.19,5.05 5.77,8.67l11.4 25.55 0.25 0.63c2.84,7.61 2.17,13.57 -0.12,18.55 -2.13,4.65 -5.36,7.81 -8.35,10.73l-0.66 0.65c0.43,0.71 0.91,1.46 1.4,2.21l0.01 -0.01c1.48,2.23 3.18,4.54 4.78,6.61 2.31,2.99 4.45,5.54 5.42,6.61 1.54,1.68 4.05,3.98 7.06,6.45 2.82,2.32 6.11,4.82 9.52,7.14 2.72,1.86 5.41,3.54 7.83,4.82 0.89,0.47 1.73,0.88 2.5,1.22 0.44,-0.49 0.88,-1.01 1.27,-1.47l0.03 0 0.21 -0.25 -0.02 -0.01c0.42,-0.5 0.81,-0.96 1.37,-1.56l0.01 0.01 1.77 -1.94 -0.01 -0.01 1.74 -1.93 0.03 -0.05c9.81,-11 12.45,-13.96 25.94,-6.92l1.42 0.75zm2.89 16.82c-2.64,-1.36 -5.31,-2.74 -7.9,-4.11l-0.08 -0 -1.39 -0.75c-5.28,-2.86 -6.35,-1.67 -10.73,3.24l-0.05 0.06 -0.01 -0.01 -1.75 1.99 -0.03 0c-0.54,0.59 -1.17,1.29 -1.96,2.13l0 0.03c-0.18,0.19 -0.5,0.57 -0.84,0.98l-0.03 0 -0.21 0.25 0.02 0.01c-0.96,1.15 -2.19,2.59 -3.53,3.81 -2.52,2.29 -5.49,3.77 -8.89,3l-0.13 -0.03c-2.37,-0.59 -5.09,-1.73 -7.94,-3.24 -2.92,-1.54 -6.06,-3.5 -9.15,-5.62 -3.63,-2.47 -7.26,-5.24 -10.48,-7.88 -3.58,-2.95 -6.6,-5.72 -8.46,-7.76l-0.03 -0.03c-1.07,-1.18 -3.48,-4.05 -6.12,-7.46 -1.83,-2.37 -3.74,-4.97 -5.36,-7.4l0 -0.03c-1.16,-1.76 -2.15,-3.34 -2.81,-4.53 -1.09,-1.97 -1.78,-3.84 -1.86,-5.48 -0.01,-0.11 -0.03,-0.25 -0.03,-0.35l0.02 0c-0.02,-2.4 1.02,-4.49 2.67,-6.46 0.87,-1.03 1.96,-2.11 3.11,-3.22 2.12,-2.07 4.42,-4.32 5.48,-6.64 0.91,-1.98 1.1,-4.55 -0.25,-8.18l-11.36 -25.49c-0.84,-1.94 -1.79,-3.38 -2.83,-4.39 -0.87,-0.85 -1.8,-1.38 -2.76,-1.63l-0.01 0.03c-0.89,-0.23 -1.81,-0.25 -2.74,-0.09 -1.17,0.19 -2.45,0.67 -3.79,1.39l-0 -0.01c-1.29,0.7 -2.58,1.58 -3.84,2.62 -1.42,1.16 -2.8,2.49 -4.1,3.92l0 0.03c-4.1,4.51 -7.76,10.34 -10.16,16.15 -2.11,5.11 -3.23,10.02 -2.74,13.69 0.51,3.56 1.48,7.31 2.86,11.16 1.46,4.06 3.4,8.28 5.74,12.56 5.01,9.19 11.9,18.67 20,27.66 8.13,9.03 17.37,17.45 27.03,24.51 10.15,7.41 20.9,13.37 31.47,17.01 9.27,3.19 18.31,4.54 26.52,3.39 2.22,-0.32 4.39,-0.82 6.5,-1.51 1.84,-0.6 3.6,-1.33 5.27,-2.19l0.58 -0.33c1.95,-1.09 4.13,-2.86 6.25,-5.03 2.18,-2.23 4.22,-4.83 5.83,-7.5 0.75,-1.25 1.41,-2.54 1.96,-3.83 0.48,-1.15 0.85,-2.25 1.07,-3.27l0.03 -0.03c0.23,-1.05 0.31,-2.05 0.21,-2.97 -0.07,-0.67 -0.25,-1.29 -0.55,-1.82l-0.05 -0.11c-0.13,-0.25 -0.32,-0.5 -0.55,-0.74 -0.26,-0.26 -0.56,-0.51 -0.92,-0.72 -5.16,-3.09 -10.59,-5.89 -16.19,-8.78z"/>
  </g>
 </g>
</svg>
