<?xml version="1.0" encoding="UTF-8"?>
<!DOCTYPE svg PUBLIC "-//W3C//DTD SVG 1.1//EN" "http://www.w3.org/Graphics/SVG/1.1/DTD/svg11.dtd">
<!-- Creator: CorelDRAW 2019 (64-Bit) -->
<svg xmlns="http://www.w3.org/2000/svg" xml:space="preserve" width="29.2804mm" height="29.2804mm" version="1.1" style="shape-rendering:geometricPrecision; text-rendering:geometricPrecision; image-rendering:optimizeQuality; fill-rule:evenodd; clip-rule:evenodd"
viewBox="0 0 192.08 192.08"
 xmlns:xlink="http://www.w3.org/1999/xlink">
 <defs>
  <style type="text/css">
   <![CDATA[
    .fil0 {fill:none}
    .fil1 {fill:white;fill-rule:nonzero}
   ]]>
  </style>
 </defs>
 <g id="Слой_x0020_1">
  <metadata id="CorelCorpID_0Corel-Layer"/>
  <g id="_1634437282512">
   <polygon class="fil0" points="-0,192.08 192.08,192.08 192.08,0 -0,0 "/>
   <path class="fil1" d="M96.04 15.55c22.23,0 42.35,9.01 56.92,23.58 14.57,14.57 23.58,34.69 23.58,56.92 0,22.23 -9.01,42.35 -23.58,56.92 -14.57,14.57 -34.69,23.58 -56.92,23.58 -22.23,0 -42.35,-9.01 -56.92,-23.58 -14.57,-14.57 -23.58,-34.69 -23.58,-56.92 0,-22.23 9.01,-42.35 23.58,-56.92 14.57,-14.57 34.69,-23.58 56.92,-23.58zm-0.29 19.35l0 0c2.31,-0.08 4.22,1.74 4.25,4.06l0.43 46.01c4.41,1.74 7.52,6.04 7.52,11.07 0,6.57 -5.33,11.9 -11.9,11.9 -6.57,0 -11.9,-5.33 -11.9,-11.9 0,-0.33 0.01,-0.65 0.04,-0.97l-21.96 -17.39c-2.89,-2.29 -3.38,-6.52 -1.09,-9.4l0 -0c2.29,-2.89 6.52,-3.38 9.4,-1.09l21.47 17 -0.42 -44.93c-0.02,-2.32 1.85,-4.28 4.17,-4.36zm49.03 12.4c-12.47,-12.47 -29.7,-20.19 -48.74,-20.19 -19.03,0 -36.27,7.72 -48.74,20.19 -12.47,12.47 -20.19,29.7 -20.19,48.74 0,19.03 7.72,36.27 20.19,48.74 12.47,12.47 29.7,20.19 48.74,20.19 19.03,0 36.27,-7.72 48.74,-20.19 12.47,-12.47 20.19,-29.7 20.19,-48.74 0,-19.03 -7.72,-36.27 -20.19,-48.74z"/>
  </g>
 </g>
</svg>
